<!-- Generated by IcoMoon.io -->
<svg version="1.1" xmlns="http://www.w3.org/2000/svg" width="3395" height="1024" viewBox="0 0 3395 1024">
<title></title>
<g id="icomoon-ignore">
</g>
<path fill="#f29600" d="M287.7 691.3c-14.9 0-26.5-11.7-26.5-26.5v-344c0-14.8 11.7-26.5 26.5-26.5h96.5c43.5 0 84.3 16.4 114.5 47.1 30.8 30.8 47.7 71.1 47.7 114.5v73.7c0 43.5-17 83.8-47.7 114.5-30.2 30.7-71 47.2-114.5 47.2h-96.5zM384.2 638.3c60.4 0 109.2-48.8 109.2-108.7v-73.7c0-59.9-48.8-108.7-109.2-108.7h-70v291.1h70z"></path>
<path fill="#f29600" d="M384.2 701.5h-96.5c-20.6 0-36.7-16.1-36.7-36.7v-344c0-20.6 16.1-36.7 36.7-36.7h96.5c46.8 0 90 17.8 121.8 50.2 32.6 32.6 50.6 75.9 50.6 121.7v73.7c0 45.8-18 89.1-50.7 121.8-31.7 32.2-74.9 50-121.7 50zM287.7 304.5c-9.3 0-16.3 7-16.3 16.3v344.1c0 9.3 7 16.3 16.3 16.3h96.5c41.2 0 79.3-15.7 107.2-44.1 28.9-28.9 44.8-67 44.8-107.4v-73.7c0-40.3-15.9-78.4-44.7-107.3-28-28.5-66-44.2-107.3-44.2h-96.5zM384.2 648.5h-80.2v-311.4h80.2c65.9 0 119.4 53.3 119.4 118.9v73.7c0 65.5-53.5 118.8-119.4 118.8zM324.4 628.1h59.8c54.6 0 99-44.2 99-98.5v-73.7c0-54.3-44.4-98.5-99-98.5h-59.8v270.7z"></path>
<path fill="#f29600" d="M626.2 655.9c-22.7-22.7-35.3-53-35.3-84.7v-54.9c0-31.8 12.5-61.9 35.3-84.7 22.4-22.4 52.6-34.9 84.7-34.9 31.8 0 62 12.5 84.7 34.9 22.4 22.8 34.9 52.9 34.9 84.7v54.9c0 31.7-12.5 62-34.9 84.7-22.7 22.4-52.9 35-84.7 35-32.1-0.1-62.3-12.6-84.7-35zM630.1 516.2v54.9c0 44.3 36.1 80.4 80.8 80.4 44.3 0 80.4-36.1 80.4-80.4v-54.9c0-44.3-36.1-80.4-80.4-80.4-44.7 0.1-80.8 36.1-80.8 80.4z"></path>
<path fill="#f29600" d="M710.9 698.4c-34.2 0-66.1-13.2-90.1-37.2-24.2-24.2-37.5-56.2-37.5-90v-54.9c0-33.8 13.3-65.8 37.5-90 24-23.9 55.9-37.1 90.1-37.1 33.8 0 65.7 13.2 90 37.1 24 24.4 37.2 56.4 37.2 90.1v54.9c0 33.8-13.2 65.7-37.1 90-24.3 23.9-56.3 37.1-90.1 37.1zM710.9 404.2c-30.1 0-58.3 11.6-79.4 32.7-21.3 21.4-33 49.5-33 79.4v54.9c0 29.9 11.7 58 33 79.4 21.1 21.1 49.3 32.7 79.4 32.7 29.8 0 58-11.6 79.4-32.8 21-21.4 32.7-49.6 32.7-79.3v-54.9c0-29.7-11.6-57.9-32.7-79.4-21.4-21.1-49.6-32.7-79.4-32.7zM710.9 659.1c-48.7 0-88.4-39.5-88.4-88v-54.9c0-48.5 39.6-87.9 88.4-87.9 48.5 0 88 39.4 88 87.9v54.9c0 48.6-39.5 88-88 88zM710.9 443.4c-40.4 0-73.2 32.7-73.2 72.8v54.9c0 40.2 32.8 72.8 73.2 72.8 40.2 0 72.8-32.7 72.8-72.8v-54.9c0.1-40.1-32.6-72.8-72.8-72.8z"></path>
<path fill="#f29600" d="M1105.9 416.7v254.6c0 10.9-8.6 19.6-19.6 19.6-10.6 0-19.6-8.7-19.6-19.6v-45.9l-53.3-53.8-27.9-27.4-80-80v207.1c0 10.9-8.6 19.6-19.6 19.6-10.9 0-19.6-8.7-19.6-19.6v-254.6c0-7.9 4.7-14.9 12.1-18.1 7.4-3.1 15.7-1.6 21.2 4.3l167.1 167.1v-153.3c0-11 9-19.6 19.6-19.6 11-0.1 19.6 8.6 19.6 19.6z"></path>
<path fill="#f29600" d="M1086.3 698.4c-15 0-27.2-12.2-27.2-27.2v-42.8l-146.1-146.1v188.9c0 15.2-11.9 27.2-27.2 27.2-15.2 0-27.1-11.9-27.1-27.2v-254.5c0-10.9 6.6-20.7 16.8-25 10.4-4.4 22.1-1.9 29.6 6.1l154 154v-135.1c0-15 12.2-27.2 27.2-27.2 15.2 0 27.2 12 27.2 27.2v254.6c0 15.1-12 27.1-27.2 27.1zM897.9 445.8l176.3 176.4v49c0 6.6 5.4 12 12.1 12 6.8 0 12-5.3 12-12v-254.5c0-6.8-5.3-12.1-12-12.1s-12.1 5.4-12.1 12.1v171.6l-180-180.1c-3.4-3.6-8.3-4.6-12.8-2.6-4.6 1.9-7.5 6.2-7.5 11.1v254.6c0 6.8 5.3 12 12 12 6.8 0 12.1-5.3 12.1-12v-225.5z"></path>
<path fill="#f29600" d="M1359.2 657.5c7.8 7.4 7.8 20 0 27.4-3.6 4-8.6 5.9-13.7 5.9s-10.2-2-13.7-5.9l-113.8-113.4-34.9 34.9v64.7c0 10.9-9 19.6-19.6 19.6-11 0-19.6-8.7-19.6-19.6v-358.3c0-11 8.6-19.6 19.6-19.6 10.6 0 19.6 8.6 19.6 19.6v238.3l21.2-21.2 93.6-94.2c7.5-7.8 20-7.8 27.5 0 7.8 7.5 7.8 20 0 27.5l-79.5 80.4 113.3 113.9z"></path>
<path fill="#f29600" d="M1345.5 698.4c-7.6 0-14.6-3.1-19.4-8.5l-108.1-107.7-27.4 27.4v61.6c0 15-12.2 27.2-27.2 27.2-15.3 0-27.2-11.9-27.2-27.2v-358.4c0-15.2 11.9-27.2 27.2-27.2 15 0 27.2 12.2 27.2 27.2v220.1l101.8-102.4c9.9-10.4 28.2-10.5 38.3 0.1 5 4.8 8 11.8 8 19 0 7.3-3 14.1-8.2 19.1l-74.1 74.9 108.1 108.5c5.1 4.8 8.1 11.8 8.1 19 0 7.3-3 14.3-8.2 19.2-4.4 5-11.4 8.1-18.9 8.1zM1218 560.9l119.1 118.7c4.5 5 12.5 4.7 16.5 0.3 2.7-2.6 3.9-5.5 3.9-8.7 0-3.1-1.2-6-3.5-8.2l-118.8-119.3 84.8-85.8c2.4-2.3 3.7-5.2 3.7-8.3 0-3.2-1.2-6.1-3.5-8.3-4.8-5-12.5-4.8-16.8-0.2l-127.8 128.4v-256.7c0-6.6-5.4-12-12.1-12-6.8 0-12.1 5.3-12.1 12v358.4c0 6.8 5.3 12 12.1 12 6.7 0 12.1-5.4 12.1-12v-67.9l42.4-42.4z"></path>
<path fill="#f29600" d="M2264.1 664.3v-280.4l-102.3 102.3c-5.3 4.8-11.7 8-19.1 8-6.9 0-13.8-3.2-18.6-8l-102.3-102.3v280.4c0 14.8-12.2 26.5-26.5 26.5-14.8 0-26.5-11.7-26.5-26.5v-344.6c0-10.6 6.3-20.1 16.4-24.4 9.5-4.2 21.2-2.1 28.6 5.8l128.9 128.9 128.8-128.8c7.9-7.9 19-10.1 29.1-5.8s16.4 13.8 16.4 24.4v344.6c0 14.8-12.2 26.5-26.5 26.5-14.8-0.1-26.4-11.8-26.4-26.6z"></path>
<path fill="#f29600" d="M2290.6 701c-20.6 0-36.7-16.1-36.7-36.7v-255.8l-84.9 84.9c-15.9 14.6-38.4 13.8-52.1 0l-84.8-84.8v255.8c0 20.2-16.5 36.7-36.7 36.7-20.6 0-36.7-16.1-36.7-36.7v-344.7c0-14.7 8.9-28 22.7-33.8 12.9-5.7 30.1-2.4 40.1 8.3l121.4 121.4 121.6-121.6c10.7-10.6 26.5-13.8 40.3-8.1 13.8 5.8 22.7 19.1 22.7 33.8v344.6c-0.2 20.2-16.7 36.7-36.9 36.7zM2274.3 359.2v305.1c0 9.1 7.2 16.3 16.3 16.3 9 0 16.3-7.3 16.3-16.3v-344.6c0-6.5-4-12.4-10.2-15s-13-1.2-17.9 3.7l-136.1 136-136.1-136.1c-4.5-4.9-11.7-6.2-17.3-3.7-6.4 2.7-10.4 8.6-10.4 15v344.6c0 9.1 7.2 16.3 16.3 16.3 9 0 16.3-7.3 16.3-16.3v-305l119.7 119.7c6.4 6.4 16.1 6.5 23.6-0.3l119.5-119.4z"></path>
<path fill="#f29600" d="M2406.5 656.4c-22.5-22.4-34.8-52.2-34.8-83.5v-54.1c0-31.3 12.4-61.1 34.8-83.5 22-22 51.8-34.4 83.5-34.4 31.4 0 61.1 12.4 83.5 34.4 22.1 22.4 34.4 52.2 34.4 83.5v54.1c0 31.3-12.3 61.1-34.4 83.5-22.5 22-52.2 34.4-83.5 34.4-31.7 0-61.5-12.4-83.5-34.4zM2410.3 518.7v54.1c0 43.7 35.6 79.3 79.6 79.3 43.7 0 79.3-35.6 79.3-79.3v-54.1c0-43.7-35.6-79.2-79.3-79.2-44 0-79.6 35.5-79.6 79.2z"></path>
<path fill="#f29600" d="M2490 698.3c-33.6 0-65.2-13-88.8-36.6-23.8-23.8-37-55.4-37-88.8v-54.1c0-33.4 13.1-64.9 37-88.8 23.6-23.6 55.1-36.6 88.8-36.6 33.2 0 64.8 13 88.7 36.5 23.7 24 36.6 55.5 36.6 88.8v54.1c0 33.3-13 64.8-36.5 88.8-24.1 23.7-55.6 36.7-88.8 36.7zM2490 408.3c-29.7 0-57.4 11.4-78.2 32.2-21 21-32.6 48.8-32.6 78.2v54.1c0 29.4 11.6 57.2 32.6 78.3 20.8 20.8 48.6 32.2 78.2 32.2 29.3 0 57.1-11.5 78.3-32.3 20.7-21.1 32.2-48.9 32.2-78.2v-54.1c0-29.4-11.5-57.1-32.3-78.3-21.1-20.7-48.9-32.1-78.2-32.1zM2490 659.6c-48 0-87.1-38.9-87.1-86.7v-54.1c0-47.8 39.1-86.7 87.1-86.7 47.8 0 86.7 38.9 86.7 86.7v54.1c0 47.8-38.9 86.7-86.7 86.7zM2490 446.9c-39.8 0-72.2 32.2-72.2 71.8v54.1c0 39.6 32.4 71.8 72.2 71.8 39.6 0 71.8-32.2 71.8-71.8v-54.1c0-39.6-32.2-71.8-71.8-71.8z"></path>
<path fill="#f29600" d="M2728.1 685.4l-83.5-83.5c-3.5-3.9-5.4-8.5-5.4-14v-167.4c0-10.8 8.5-19.3 19.4-19.3 10.4 0 19.3 8.5 19.3 19.3v159.7l64.2 64.2 64.2-64.2v-159.7c0-10.8 8.5-19.3 19.3-19.3 10.4 0 19.3 8.5 19.3 19.3v167.4c0 5.4-1.9 10.1-5.8 14l-83.5 83.5c-3.9 3.8-8.5 5.4-13.5 5.4s-10.2-1.6-14-5.4z"></path>
<path fill="#f29600" d="M2742 698.3c-7.5 0-14.3-2.7-19.2-7.6l-83.5-83.5c-5.1-5.8-7.6-12.2-7.6-19.2v-167.5c0-15 11.8-26.8 26.8-26.8 14.7 0 26.7 12 26.7 26.8v156.6l56.8 56.8 56.8-56.8v-156.6c0-15 11.7-26.8 26.7-26.8 14.8 0 26.8 12 26.8 26.8v167.4c0 7.4-2.7 13.9-7.9 19.2l-83.6 83.5c-5 5.1-11.4 7.7-18.8 7.7zM2658.5 408.7c-6.7 0-11.9 5.2-11.9 11.9v167.4c0 3.4 1.2 6.3 3.5 9l83.2 83.2c2.7 2.7 6.2 3.2 8.6 3.2 3.4 0 6-1 8.3-3.3l83.5-83.5c2.4-2.5 3.6-5.3 3.6-8.7v-167.4c0-6.6-5.3-11.9-11.9-11.9s-11.9 5.2-11.9 11.9v162.7l-71.6 71.7-71.6-71.7v-162.7c0.1-6.5-5.2-11.8-11.8-11.8z"></path>
<path fill="#f29600" d="M2917.9 500.9c0-34 27.4-61.5 61.5-61.5h5.4c10.5 0 19.4-8.5 19.4-19.4 0-10.8-8.9-19.3-19.4-19.3h-5.4c-26.7 0-51.8 10.4-70.7 29.4-18.9 18.9-29.4 44.1-29.4 70.8v22.7h38.7v-22.7z"></path>
<path fill="#f29600" d="M2925.4 531h-53.5v-30.1c0-28.6 11.2-55.6 31.6-76 20.4-20.3 47.4-31.5 76-31.5h5.4c14.8 0 26.8 12 26.8 26.7 0 14.8-12 26.8-26.8 26.8h-5.4c-29.8 0-54 24.2-54 54v30.1zM2886.7 516.2h23.8v-15.2c0-38 30.9-68.9 68.9-68.9h5.4c6.6 0 11.9-5.4 11.9-11.9s-5.4-11.9-11.9-11.9h-5.4c-24.7 0-47.9 9.7-65.5 27.2-17.6 17.6-27.2 40.8-27.2 65.5v15.2z"></path>
<path fill="#f29600" d="M3054.6 500.9c0-34-27.4-61.5-61.5-61.5h-5.4c-10.5 0-19.3-8.5-19.3-19.4 0-10.8 8.8-19.3 19.3-19.3h5.4c26.7 0 51.8 10.4 70.8 29.4 18.9 18.9 29.4 44.1 29.4 70.8v22.7h-38.7v-22.7z"></path>
<path fill="#f29600" d="M3100.8 531h-53.6v-30.1c0-29.8-24.2-54-54-54h-5.4c-14.8 0-26.8-12-26.8-26.8s12-26.7 26.8-26.7h5.4c28.6 0 55.6 11.2 76 31.5 20.4 20.4 31.6 47.4 31.6 76v30.1zM3062.1 516.2h23.8v-15.2c0-24.7-9.7-47.9-27.2-65.5-17.6-17.5-40.8-27.2-65.5-27.2h-5.4c-6.5 0-11.9 5.3-11.9 11.9s5.3 11.9 11.9 11.9h5.4c38 0 68.9 30.9 68.9 68.9v15.2z"></path>
<path fill="#f29600" d="M3069.9 652.1h-90.5c-27.8 0-51.4-18.6-58.7-43.7l-2.7-52.2v-32.7h-38.7v67.1c0 26.7 10.5 51.8 29.4 70.7s44 29.4 70.7 29.4h90.5c10.5 0 19.3-8.5 19.3-19.3s-8.8-19.3-19.3-19.3z"></path>
<path fill="#f29600" d="M3069.9 698.3h-90.5c-28.6 0-55.6-11.2-76-31.6s-31.6-47.4-31.6-76v-74.5h53.5v40.1l2.7 51.8c6.3 20.9 27.5 36.6 51.3 36.6h90.5c14.7 0 26.7 12 26.7 26.8 0.1 14.8-11.8 26.8-26.6 26.8zM2886.7 531v59.6c0 24.7 9.7 47.9 27.2 65.5s40.8 27.2 65.5 27.2h90.5c6.5 0 11.9-5.3 11.9-11.9s-5.3-11.9-11.9-11.9h-90.5c-30.4 0-57.5-20.2-65.9-49.1l-3-53.8v-25.6h-23.8z"></path>
<path fill="#f29600" d="M2896.9 513.3h203.8v52.1h-203.8v-52.1z"></path>
<path fill="#f29600" d="M1411.6 500.9c0-34 27.4-61.5 61.5-61.5h5.4c10.4 0 19.3-8.5 19.3-19.4 0-10.8-8.9-19.3-19.3-19.3h-5.4c-26.6 0-51.8 10.4-70.7 29.4-19 18.9-29.4 44.1-29.4 70.8v22.7h38.7v-22.7z"></path>
<path fill="#f29600" d="M1419.1 531h-53.5v-30.1c0-28.7 11.2-55.7 31.6-76s47.4-31.5 76-31.5h5.4c14.8 0 26.8 12 26.8 26.7 0 14.8-12 26.8-26.8 26.8h-5.4c-29.8 0-54 24.2-54 54v30.1zM1380.4 516.2h23.8v-15.2c0-38 30.9-68.9 68.9-68.9h5.4c6.6 0 11.9-5.4 11.9-11.9s-5.3-11.9-11.9-11.9h-5.4c-24.7 0-47.9 9.7-65.5 27.2s-27.2 40.8-27.2 65.5v15.2z"></path>
<path fill="#f29600" d="M1548.3 500.9c0-34-27.4-61.5-61.5-61.5h-5.4c-10.5 0-19.4-8.5-19.4-19.4 0-10.8 8.9-19.3 19.4-19.3h5.4c26.6 0 51.8 10.4 70.8 29.4 18.9 18.9 29.4 44.1 29.4 70.8v22.7h-38.7v-22.7z"></path>
<path fill="#f29600" d="M1594.5 531h-53.5v-30.1c0-29.8-24.2-54-54-54h-5.4c-14.8 0-26.8-12-26.8-26.8s12-26.7 26.8-26.7h5.4c28.7 0 55.7 11.2 76 31.5 20.3 20.4 31.5 47.4 31.5 76v30.1zM1555.8 516.2h23.8v-15.2c0-24.7-9.7-48-27.2-65.5s-40.8-27.2-65.5-27.2h-5.4c-6.6 0-11.9 5.3-11.9 11.9s5.4 11.9 11.9 11.9h5.4c38 0 68.9 30.9 68.9 68.9v15.2z"></path>
<path fill="#f29600" d="M1563.6 652.1h-90.5c-27.8 0-51.4-18.6-58.7-43.7l-2.7-52.2v-32.7h-38.7v67.1c0 26.7 10.4 51.8 29.4 70.7 18.9 18.9 44 29.4 70.7 29.4h90.5c10.5 0 19.4-8.5 19.4-19.3-0.1-10.8-9-19.3-19.4-19.3z"></path>
<path fill="#f29600" d="M1563.6 698.3h-90.5c-28.6 0-55.6-11.2-76-31.6-20.4-20.3-31.6-47.3-31.6-76v-74.5h53.5v40.1l2.7 51.8c6.3 20.9 27.5 36.6 51.3 36.6h90.5c14.8 0 26.8 12 26.8 26.8 0.1 14.8-12 26.8-26.7 26.8zM1380.4 531v59.6c0 24.7 9.7 47.9 27.2 65.5s40.8 27.2 65.5 27.2h90.5c6.6 0 11.9-5.3 11.9-11.9s-5.4-11.9-11.9-11.9h-90.5c-30.4 0-57.5-20.2-65.9-49.1l-3-53.8v-25.6h-23.8z"></path>
<path fill="#f29600" d="M1390.6 513.3h203.8v52.1h-203.8v-52.1z"></path>
<path fill="#f29600" d="M1700.3 816.4c-6.9 14.5-24.7 21.4-39.4 15.3-14.7-6-21-22.8-14-37.3l178.3-370.1c7-14.5 24.7-21.4 39.4-15.3 14.7 6 21 22.8 14.1 37.3l-178.4 370.1z"></path>
<path fill="#f29600" d="M1672.1 837.4c-4.3 0-8.5-0.8-12.5-2.4-7.9-3.2-13.9-9.4-16.9-17.2-3.1-8-2.7-16.7 1.2-24.7l178.3-370.1c5.7-11.8 18-19.4 31.2-19.4 4.3 0 8.5 0.8 12.5 2.4 7.9 3.2 13.9 9.4 16.9 17.2 3.1 8 2.7 16.7-1.1 24.6l-178.4 370.1c-5.6 11.8-17.9 19.5-31.2 19.5zM1853.4 410.3c-10.7 0-20.6 6.1-25.2 15.6l-178.3 370.1c-3 6.2-3.3 13.1-0.9 19.3 2.3 6.1 7 10.9 13.2 13.4 3.1 1.3 6.5 1.9 9.9 1.9 10.7 0 20.6-6.1 25.1-15.6l178.4-370.1c3-6.2 3.3-13.1 0.9-19.3-2.4-6.1-7.1-10.9-13.2-13.4-3.1-1.3-6.5-1.9-9.9-1.9z"></path>
<path fill="#f29600" d="M1754.7 650.9c6.2 14.8-1.1 31.2-16.2 36.5-15.1 5.2-32.4-2.7-38.5-17.6l-95-230c-6.2-14.8 1.2-31.2 16.2-36.5 15.1-5.2 32.4 2.7 38.6 17.5l94.9 230.1z"></path>
<path fill="#f29600" d="M1729 692.4c-14 0-26.9-8.6-32.1-21.3l-95-230c-3.4-8.1-3.3-16.8 0.2-24.7 3.5-7.7 9.9-13.6 18-16.4 3.5-1.2 7.1-1.8 10.7-1.8 14 0 26.9 8.5 32.1 21.3l95 230c3.4 8.1 3.3 16.8-0.2 24.6s-9.9 13.6-18.1 16.4c-3.4 1.3-7 1.9-10.6 1.9zM1630.8 405.2c-2.9 0-5.8 0.5-8.5 1.4-6.3 2.2-11.3 6.7-14 12.7-2.7 6.1-2.8 12.9-0.1 19.2l95 230c4.2 10.2 14.5 17 25.8 17 2.9 0 5.8-0.5 8.5-1.4 6.3-2.2 11.3-6.7 14-12.7s2.7-12.8 0.1-19.1l-95-230c-4.2-10.2-14.6-17.1-25.8-17.1z"></path>
</svg>
