<?xml version="1.0" encoding="utf-8"?>
<!-- Generator: Adobe Illustrator 22.1.0, SVG Export Plug-In . SVG Version: 6.00 Build 0)  -->
<svg version="1.1" id="圖層_1" xmlns="http://www.w3.org/2000/svg" xmlns:xlink="http://www.w3.org/1999/xlink" x="0px" y="0px"
	 viewBox="0 0 500 500" style="enable-background:new 0 0 500 500;" xml:space="preserve">
<style type="text/css">
	.st0{fill:#FFFFFF;}
</style>
<g id="XMLID_465_">
	<path class="st0" d="M243.4,468.7c-0.1,0-0.1,0-0.2,0c-2.5-0.1-4.6-1.6-5.4-4c-12.3-35.1-45-56.1-76.6-76.4
		c-36.1-23.2-73.4-47.1-78.8-92c-5.1-41.7,2.9-74.1,23.7-96.4c23.7-25.4,57.1-30.2,72.6-31c-30.2-97.3,14.1-141.4,16-143.3
		c1.2-1.2,2.9-1.8,4.5-1.7c1.7,0.1,3.2,0.9,4.3,2.2c39.9,49.2,30.8,100,21.2,126.9c14-7,34.3-12.1,54.5,0.4c2,1.2,3,3.5,2.8,5.8
		c-0.3,2.3-1.9,4.2-4.1,4.9c-0.2,0.1-15.6,5.2-23.8,15.3c11.5-1.2,28.4,1.9,42.7,24.2c27.7-13,55.2-4.6,55.5-4.4
		c44,14.2,68.7,45.4,67.7,85.6c-1.2,51.9-44.2,102.4-100,117.6c-50.2,13.7-71,62.2-71.2,62.7C248,467.2,245.8,468.7,243.4,468.7z
		 M184.7,180.7c-8.6,0-45.9,1.6-70,27.5c-18.2,19.6-25.1,48.8-20.5,86.7c4.8,39.3,38.1,60.8,73.4,83.4
		c29.7,19.1,60.4,38.8,76.3,70.5c10-16.8,32.8-47,73-57.9c50.9-13.9,90.1-59.6,91.2-106.4c0.8-35.1-20.3-61.3-59.5-74
		c-1.6-0.5-38.8-11.7-66.5,18.4c18.7,24.7,44.9,65.7,44.3,100.2c-0.5,26.9-12.5,48.6-32.3,58.1c-20.6,9.9-46,5.1-69.8-13.2
		c-35.3-27.2-50.2-71.2-50.9-73.1c-1-3.1,0.7-6.5,3.8-7.5c3.1-1,6.5,0.7,7.5,3.8c0.1,0.4,14.5,42.5,46.8,67.4
		c20.1,15.5,41,19.8,57.4,11.9c15.7-7.5,25.2-25.3,25.6-47.6c0.8-47.6-58.7-113.5-59.3-114.2c-1.2-1.3-1.7-3-1.5-4.7
		c0.2-1.7,1.1-3.2,2.5-4.2c6.7-4.6,16.1-5,24.1-4.1c-16-17.1-32.1-9.2-34.1-8.1c-2,1.1-4.5,1-6.3-0.4c-1.9-1.3-2.8-3.6-2.4-5.8
		c2.3-14,14-23.3,23.6-28.8c-23.8-5.3-46,14.7-46.3,15c-2.2,2-5.5,2.1-7.8,0.2c-2.3-1.9-2.8-5.2-1.3-7.7
		c1.6-2.7,38.4-64.3-7.1-126.8c-10.2,13.9-32.6,56-6.2,133.4c0.6,1.9,0.3,3.9-0.9,5.5c-1.2,1.6-3.1,2.4-5.1,2.4
		C186.5,180.7,185.9,180.7,184.7,180.7z M269.9,213.5c1.4,1.7,3.1,3.7,4.9,5.9c2-2,4-3.9,6-5.6C277.1,213.3,273.3,213.1,269.9,213.5
		z"/>
</g>
<g id="XMLID_464_">
	<path class="st0" d="M350.4,209.7c-2.9,0-5.4-2.1-5.9-5c-0.5-3.2,1.7-6.3,4.9-6.8c9.8-1.5,16-6.3,16.7-12.6
		c0.6-5.6-3.2-10.9-9.3-13.2c-6-2.2-16.8,1.5-26.3,4.8c-11.6,4-22.5,7.8-30.4,3.6c-2.5-1.3-5.8-4-7.3-9.6
		c-2.7-9.8-0.5-19.8,6.4-28.9c4.8-6.3,12.9-13,17.5-13c3.3,0,5.9,2.7,5.9,5.9c0,2.8-2,5.2-4.6,5.8c-2.9,1.5-17.7,12.3-13.7,26.9
		c0.5,1.7,1.1,2.1,1.4,2.2c3.4,1.8,13.1-1.6,21-4.3c12-4.2,24.4-8.5,34.4-4.7c11.1,4.2,18.1,14.7,17,25.5
		c-0.9,9.3-8.4,20.3-26.6,23.2C351,209.6,350.7,209.7,350.4,209.7z"/>
</g>
<g id="XMLID_463_">
	<path class="st0" d="M372.1,104.5c0,0-46.2-18.7-55.4,8.8c-8.9,26.6,25.1,38.7,39.4,27.2C370.4,129.1,372.1,104.5,372.1,104.5z"/>
	<path class="st0" d="M342.3,150.8L342.3,150.8c-11.1,0-22.2-5.3-28.1-13.5c-3.7-5.1-7.3-13.8-3.2-25.9c2.9-8.7,10.6-19,30.9-19
		c15.8,0,31.7,6.4,32.4,6.6c2.4,1,3.9,3.4,3.7,5.9c-0.1,1.1-2.1,27.3-18.2,40.2C355.3,148.8,349.1,150.8,342.3,150.8z M342,104.3
		c-16,0-18.7,8.2-19.6,10.9c-2,5.9-1.4,11,1.6,15.1c3.7,5.1,11.1,8.6,18.4,8.6c4.1,0,7.6-1.1,10.1-3c8.7-7,12-20.4,13.2-27.3
		C360.3,106.8,350.9,104.3,342,104.3z"/>
</g>
<g id="XMLID_460_">
	<path class="st0" d="M246.8,159c-1.1,0-2.2-0.3-3.2-0.9c-2.8-1.8-3.6-5.5-1.8-8.2c26-40.5,6.7-89.5-2.6-108.6
		c-5.1,9-8.7,20.2-9.8,24.8c-0.8,3.2-4.1,5.1-7.2,4.3c-3.2-0.8-5.1-4-4.3-7.2c0.2-1,6.2-24.4,17.6-37.1c1.3-1.4,3.1-2.1,4.9-2
		c1.9,0.2,3.5,1.2,4.5,2.8c1.8,2.9,43.8,71.8,6.9,129.4C250.7,158,248.7,159,246.8,159z"/>
</g>
<g id="XMLID_459_">
	<path class="st0" d="M201.5,335.2c0,0-5.9-14.5,11.6-28.2c17.5-13.7,51.8,12.6,66.3-16c14.5-28.6,27.5-19.7,27.5-19.7
		s15.7,32.4,17.2,47.9c1.6,15.5-1.8,48.7-26.9,61.9C272.1,394.3,227.2,383.4,201.5,335.2z"/>
	<path class="st0" d="M274.8,392.3c-24,0-57.2-14.3-78.5-54.3c-0.1-0.2-0.2-0.4-0.3-0.6c-0.3-0.8-7.4-18.8,13.5-35.1
		c4.8-3.8,10.7-5.5,18.6-5.5c4.6,0,9.4,0.6,14,1.2c4.4,0.5,8.9,1.1,13.1,1.1c9.6,0,15.1-3.1,18.9-10.8c17-33.7,34.8-22.9,36.2-21.9
		c0.9,0.6,1.5,1.4,2,2.3c0.7,1.4,16.1,33.5,17.8,49.8c1.7,17.1-2.3,53.2-30.1,67.8C292.8,390.2,284,392.3,274.8,392.3z M207,332.8
		c18.8,35.1,47.3,47.6,67.8,47.6c7.3,0,14.2-1.6,19.8-4.5c22.1-11.6,25.2-41.8,23.8-56.1c-1.1-11-10.9-33.6-15.7-43.8
		c-0.2,0-0.5-0.1-0.8-0.1c-2.4,0-9,1.7-17.1,17.7c-5.9,11.6-15.6,17.3-29.5,17.3c-4.9,0-9.8-0.6-14.5-1.2c-4.5-0.6-8.7-1.1-12.5-1.1
		c-5.1,0-8.7,1-11.3,3C204.3,321.5,206.5,331.1,207,332.8z"/>
</g>
<g id="XMLID_457_">
	<path class="st0" d="M292.4,357.3c0,0,11-46.5,0-48.4C281.3,307,292.4,357.3,292.4,357.3z"/>
	<path class="st0" d="M292.3,368.3l-2.3-10.6c-1.5-6.9-8.7-41.5-2.4-49.3c1.3-1.6,3.1-2.3,5.2-2c1.8,0.3,3.3,1.4,4.4,3
		c6.5,9.8-1.5,44.4-2.4,48.3L292.3,368.3z M292,311.3l-0.5,0.2c-2.7,3.4-1.4,18.8,1,33c2.3-13,3.6-27.8,0.7-32.3
		C292.7,311.5,292.3,311.4,292,311.3z"/>
</g>
<g id="XMLID_473_">
	<path class="st0" d="M248.1,267.2c-3.1,0-5.7-2.3-6-5.5c0-0.2-1.3-12.4-9.2-18c-8-5.7-23.4-3.5-26.4-1.6c-2.8,1.8-6.5,1-8.3-1.8
		c-1.8-2.8-1-6.5,1.8-8.3c6.7-4.3,27.4-6.9,39.8,1.9c12.5,8.8,14.2,26,14.3,26.7c0.3,3.3-2.1,6.2-5.5,6.5
		C248.5,267.2,248.3,267.2,248.1,267.2z"/>
</g>
</svg>
